<?xml version="1.0" encoding="UTF-8" standalone="no"?>
<!DOCTYPE svg PUBLIC "-//W3C//DTD SVG 1.1//EN" "http://www.w3.org/Graphics/SVG/1.1/DTD/svg11.dtd">
<svg width="100%" height="100%" viewBox="0 0 1080 1080" version="1.1" xmlns="http://www.w3.org/2000/svg" xmlns:xlink="http://www.w3.org/1999/xlink" xml:space="preserve" xmlns:serif="http://www.serif.com/" style="fill-rule:evenodd;clip-rule:evenodd;stroke-linejoin:round;stroke-miterlimit:2;">
    <g transform="matrix(1.485624,0,0,1.485624,-838.516066,-274.440021)">
        <path d="M799.601,528.094C799.602,528.094 799.607,528.135 799.613,528.188C799.616,528.22 799.619,528.252 799.623,528.283C843.785,512.668 887.946,497.052 932.108,481.436C949.127,475.419 965.008,466.567 979.08,455.257C1015.67,425.842 1052.27,396.426 1088.86,367.01C1082.94,362.437 1071.19,352.094 1063.44,334.58C1055.74,317.177 1055.94,301.622 1056.52,294.169C1036.81,319.742 1007.42,351.853 965.69,380.876C932.51,403.951 903.859,416.453 881.649,426.079C851.628,439.091 810.193,453.997 758.792,463.729C765.297,467.814 775.054,475.101 783.598,486.98C795.384,503.369 798.573,519.754 799.601,528.094Z" style="fill:rgb(12,24,61);fill-rule:nonzero;"/>
        <path d="M1108.51,716.034C1090.96,643.484 1079.44,588.976 1076.86,569.613C1075.33,558.154 1075.46,548.082 1075.48,547.086C1075.74,531.962 1078.32,520.754 1079.31,516.315C1083.65,496.958 1093.42,447.795 1106.89,380.593C1114.64,383.385 1129.15,387.475 1147.5,385.844C1165.92,384.208 1179.53,377.58 1186.66,373.451C1174.03,399.936 1157.92,441.2 1151.36,493.978C1146.08,536.384 1149.1,569.107 1151.09,589.484C1154.27,621.966 1162.18,668.927 1183.45,722.984C1176.26,718.663 1160.89,710.793 1140.13,710.475C1126.48,710.267 1115.49,713.401 1108.51,716.034Z" style="fill:rgb(12,24,61);fill-rule:nonzero;"/>
        <path d="M1092.65,358.713C1100.87,365.626 1110.53,370.789 1121,373.762C1130.88,376.566 1141.48,377.431 1152.3,375.933C1165.18,374.15 1176.86,369.243 1186.69,362.095C1208.74,346.057 1221.48,318.705 1217.48,289.802C1211.69,248.019 1173.13,218.836 1131.35,224.62C1092.88,229.945 1065.12,263.052 1065.46,300.874C1065.49,304.137 1065.71,307.431 1066.17,310.751C1068.86,330.236 1078.69,346.976 1092.65,358.713Z" style="fill:rgb(12,24,61);fill-rule:nonzero;"/>
        <path d="M664.788,595.752C673.008,602.665 682.666,607.828 693.14,610.802C703.015,613.605 713.613,614.469 724.434,612.971C737.315,611.188 748.993,606.282 758.825,599.134C780.882,583.096 793.618,555.744 789.617,526.842C783.833,485.057 745.271,455.875 703.486,461.659C665.021,466.984 637.258,500.091 637.6,537.912C637.629,541.176 637.844,544.47 638.303,547.789C641.001,567.274 650.832,584.015 664.788,595.752Z" style="fill:rgb(12,24,61);fill-rule:nonzero;"/>
        <path d="M1089.7,854.593C1097.92,861.506 1107.57,866.668 1118.05,869.642C1127.92,872.446 1138.52,873.31 1149.34,871.812C1162.22,870.029 1173.9,865.122 1183.73,857.974C1205.79,841.937 1218.53,814.584 1214.52,785.682C1208.74,743.898 1170.18,714.715 1128.4,720.5C1089.93,725.825 1062.17,758.93 1062.51,796.753C1062.54,800.016 1062.75,803.31 1063.21,806.63C1065.91,826.115 1075.74,842.856 1089.7,854.593Z" style="fill:rgb(12,24,61);fill-rule:nonzero;"/>
        <path d="M799.375,549.2C799.419,548.878 799.453,548.615 799.473,548.452C867.726,576.415 917.384,596.74 932.283,602.378C934.879,603.36 942.648,606.254 951.959,611.961C961.053,617.536 967.022,622.977 968.856,624.628C980.418,635.032 1025.459,672.668 1089.64,726.022C1078.38,734.052 1071.51,742.78 1067.64,748.556C1063.77,754.331 1061.32,759.517 1059.86,763.012C1054.9,774.835 1053.51,785.675 1053.23,793.43C1012.67,746.388 972.942,714.61 943.71,694.207C912.19,672.206 886.63,659.07 880.147,655.784C831.393,631.07 787.334,618.896 756.172,612.471C766.484,606.693 773.434,600.114 777.634,595.517C780.436,592.451 795.85,575.123 799.375,549.2Z" style="fill:rgb(12,24,61);fill-rule:nonzero;"/>
    </g>
</svg>
